<svg width="32" height="12" fill="none" xmlns="http://www.w3.org/2000/svg"><path d="M4.32 9.686c1.512 0 2.682-1.175 2.682-2.915V0h1.637v10.972H7.017v-1.02c-.732.769-1.746 1.208-2.884 1.208C1.793 11.16 0 9.45 0 6.865V0h1.637v6.771c0 1.771 1.155 2.915 2.683 2.915zM9.856 0h1.575v3.997a3.923 3.923 0 0 1 2.822-1.191c2.34 0 4.18 1.865 4.18 4.185a4.154 4.154 0 0 1-4.18 4.169 3.96 3.96 0 0 1-2.838-1.191v1.003h-1.56V0zm4.288 9.765c1.497 0 2.73-1.239 2.73-2.775 0-1.551-1.233-2.774-2.73-2.774A2.75 2.75 0 0 0 11.4 6.99c0 1.536 1.217 2.775 2.745 2.775zm8.998-6.944c2.293 0 3.977 1.771 3.977 4.154v.517h-6.472c.218 1.3 1.295 2.273 2.636 2.273.92 0 1.7-.376 2.292-1.176l1.139.847c-.796 1.065-1.981 1.708-3.431 1.708-2.386 0-4.226-1.787-4.226-4.17 0-2.257 1.762-4.153 4.085-4.153zm-2.464 3.417h4.85C25.263 5.015 24.281 4.2 23.111 4.2c-1.17 0-2.152.815-2.433 2.038zm10.667-1.849c-1.03 0-1.778.799-1.778 2.037v4.546h-1.575V2.978h1.56v.988c.39-.643 1.029-1.05 1.902-1.05H32v1.473h-.655z" fill="#FFF"/></svg>